<mxfile host="app.diagrams.net" modified="2021-06-23T10:52:36.560Z" agent="5.0 (X11; Linux x86_64) AppleWebKit/537.36 (KHTML, like Gecko) Chrome/91.0.4472.114 Safari/537.36" etag="dGMBfV6Bp-3tpdwl77_H" version="14.7.6" type="github">
  <diagram id="z4wmTYJGlARhxToBYjpu" name="Page-1">
    <mxGraphModel dx="1350" dy="737" grid="1" gridSize="10" guides="1" tooltips="1" connect="1" arrows="1" fold="1" page="1" pageScale="1" pageWidth="100827" pageHeight="10000" math="0" shadow="0">
      <root>
        <mxCell id="0" />
        <mxCell id="1" parent="0" />
        <mxCell id="r2geACx0xmXdcOou7V_p-19" value="" style="rounded=0;whiteSpace=wrap;html=1;fontSize=40;fillColor=#f9f7ed;strokeColor=#36393d;" vertex="1" parent="1">
          <mxGeometry x="210" y="290" width="950" height="580" as="geometry" />
        </mxCell>
        <mxCell id="r2geACx0xmXdcOou7V_p-1" value="&lt;b style=&quot;font-size: 40px;&quot;&gt;&lt;font style=&quot;font-size: 40px;&quot;&gt;Hierarchical Model&lt;/font&gt;&lt;/b&gt;" style="text;html=1;strokeColor=none;fillColor=none;align=center;verticalAlign=middle;whiteSpace=wrap;rounded=0;fontSize=40;" vertex="1" parent="1">
          <mxGeometry x="605" y="420" width="140" height="20" as="geometry" />
        </mxCell>
        <mxCell id="r2geACx0xmXdcOou7V_p-8" style="edgeStyle=orthogonalEdgeStyle;rounded=0;orthogonalLoop=1;jettySize=auto;html=1;exitX=0.75;exitY=1;exitDx=0;exitDy=0;fontSize=40;" edge="1" parent="1" source="r2geACx0xmXdcOou7V_p-2" target="r2geACx0xmXdcOou7V_p-5">
          <mxGeometry relative="1" as="geometry" />
        </mxCell>
        <mxCell id="r2geACx0xmXdcOou7V_p-10" style="edgeStyle=orthogonalEdgeStyle;rounded=0;orthogonalLoop=1;jettySize=auto;html=1;exitX=0.25;exitY=1;exitDx=0;exitDy=0;entryX=0.5;entryY=0;entryDx=0;entryDy=0;fontSize=40;" edge="1" parent="1" source="r2geACx0xmXdcOou7V_p-2" target="r2geACx0xmXdcOou7V_p-3">
          <mxGeometry relative="1" as="geometry" />
        </mxCell>
        <mxCell id="r2geACx0xmXdcOou7V_p-22" style="edgeStyle=orthogonalEdgeStyle;rounded=0;orthogonalLoop=1;jettySize=auto;html=1;entryX=0.5;entryY=0;entryDx=0;entryDy=0;fontSize=40;" edge="1" parent="1" source="r2geACx0xmXdcOou7V_p-2" target="r2geACx0xmXdcOou7V_p-20">
          <mxGeometry relative="1" as="geometry" />
        </mxCell>
        <mxCell id="r2geACx0xmXdcOou7V_p-2" value="&lt;font style=&quot;font-size: 30px&quot;&gt;Employees&lt;/font&gt;" style="rounded=0;whiteSpace=wrap;html=1;fontSize=40;fillColor=#dae8fc;strokeColor=#6c8ebf;" vertex="1" parent="1">
          <mxGeometry x="560" y="520" width="200" height="80" as="geometry" />
        </mxCell>
        <mxCell id="r2geACx0xmXdcOou7V_p-15" style="edgeStyle=orthogonalEdgeStyle;rounded=0;orthogonalLoop=1;jettySize=auto;html=1;exitX=0.5;exitY=1;exitDx=0;exitDy=0;entryX=0.5;entryY=0;entryDx=0;entryDy=0;fontSize=40;" edge="1" parent="1" source="r2geACx0xmXdcOou7V_p-3" target="r2geACx0xmXdcOou7V_p-11">
          <mxGeometry relative="1" as="geometry" />
        </mxCell>
        <mxCell id="r2geACx0xmXdcOou7V_p-3" value="&lt;font style=&quot;font-size: 26px&quot;&gt;Freelancers&lt;/font&gt;" style="rounded=0;whiteSpace=wrap;html=1;fontSize=40;fillColor=#fff2cc;strokeColor=#d6b656;" vertex="1" parent="1">
          <mxGeometry x="390" y="640" width="150" height="60" as="geometry" />
        </mxCell>
        <mxCell id="r2geACx0xmXdcOou7V_p-17" style="edgeStyle=orthogonalEdgeStyle;rounded=0;orthogonalLoop=1;jettySize=auto;html=1;exitX=0.5;exitY=1;exitDx=0;exitDy=0;fontSize=40;" edge="1" parent="1" source="r2geACx0xmXdcOou7V_p-5" target="r2geACx0xmXdcOou7V_p-13">
          <mxGeometry relative="1" as="geometry" />
        </mxCell>
        <mxCell id="r2geACx0xmXdcOou7V_p-18" style="edgeStyle=orthogonalEdgeStyle;rounded=0;orthogonalLoop=1;jettySize=auto;html=1;exitX=0.75;exitY=1;exitDx=0;exitDy=0;entryX=0.55;entryY=0.083;entryDx=0;entryDy=0;entryPerimeter=0;fontSize=40;" edge="1" parent="1" source="r2geACx0xmXdcOou7V_p-5" target="r2geACx0xmXdcOou7V_p-14">
          <mxGeometry relative="1" as="geometry" />
        </mxCell>
        <mxCell id="r2geACx0xmXdcOou7V_p-5" value="&lt;span style=&quot;font-size: 26px&quot;&gt;Contract&lt;/span&gt;" style="rounded=0;whiteSpace=wrap;html=1;fontSize=40;fillColor=#e1d5e7;strokeColor=#9673a6;" vertex="1" parent="1">
          <mxGeometry x="780" y="640" width="150" height="60" as="geometry" />
        </mxCell>
        <mxCell id="r2geACx0xmXdcOou7V_p-11" value="&lt;font style=&quot;font-size: 22px&quot;&gt;UX designer&lt;/font&gt;" style="rounded=0;whiteSpace=wrap;html=1;fontSize=40;fillColor=#f5f5f5;strokeColor=#666666;fontColor=#333333;" vertex="1" parent="1">
          <mxGeometry x="280" y="740" width="140" height="60" as="geometry" />
        </mxCell>
        <mxCell id="r2geACx0xmXdcOou7V_p-12" value="&lt;font style=&quot;font-size: 22px&quot;&gt;Intern&lt;/font&gt;" style="rounded=0;whiteSpace=wrap;html=1;fontSize=40;fillColor=#f5f5f5;strokeColor=#666666;fontColor=#333333;" vertex="1" parent="1">
          <mxGeometry x="560" y="740" width="140" height="60" as="geometry" />
        </mxCell>
        <mxCell id="r2geACx0xmXdcOou7V_p-13" value="&lt;font style=&quot;font-size: 22px&quot;&gt;Web developer&lt;/font&gt;" style="rounded=0;whiteSpace=wrap;html=1;fontSize=40;fillColor=#f5f5f5;strokeColor=#666666;fontColor=#333333;" vertex="1" parent="1">
          <mxGeometry x="745" y="740" width="160" height="60" as="geometry" />
        </mxCell>
        <mxCell id="r2geACx0xmXdcOou7V_p-14" value="&lt;font style=&quot;font-size: 22px&quot;&gt;Manager&lt;/font&gt;" style="rounded=0;whiteSpace=wrap;html=1;fontSize=40;fillColor=#f5f5f5;strokeColor=#666666;fontColor=#333333;" vertex="1" parent="1">
          <mxGeometry x="950" y="740" width="160" height="60" as="geometry" />
        </mxCell>
        <mxCell id="r2geACx0xmXdcOou7V_p-23" style="edgeStyle=orthogonalEdgeStyle;rounded=0;orthogonalLoop=1;jettySize=auto;html=1;fontSize=40;" edge="1" parent="1" source="r2geACx0xmXdcOou7V_p-20" target="r2geACx0xmXdcOou7V_p-12">
          <mxGeometry relative="1" as="geometry" />
        </mxCell>
        <mxCell id="r2geACx0xmXdcOou7V_p-20" value="&lt;font style=&quot;font-size: 26px&quot;&gt;Temporary&lt;/font&gt;" style="rounded=0;whiteSpace=wrap;html=1;fontSize=40;fillColor=#f8cecc;strokeColor=#b85450;" vertex="1" parent="1">
          <mxGeometry x="585" y="640" width="150" height="60" as="geometry" />
        </mxCell>
      </root>
    </mxGraphModel>
  </diagram>
</mxfile>
